# xmcd
#
# Track frame offsets:
#	150
#	20627
#	35854
#	56256
#	70958
#	84010
#	105312
#	119189
#	131341
#	144168
#	179495
#	191947
#	207324
#	218201
#	237778
#	247905
#	260957
#	273409
#
# Disc length: 4047 seconds
#
# Revision: 1
# Processed by: cddbd v1.5.2PL0 Copyright (c) Steve Scherf et al.
# Submitted via: audiograbber 1.83.01
#
DISCID=0f0fcd12
DTITLE=Lars-Luis Linek and Claus "Dixi" Diercks - Blues In Germany
DYEAR=1997
DGENRE=Blues
TTITLE0=Drifting
TTITLE1=You're My Cup Of Tea
TTITLE2=Prisoner Of Vice
TTITLE3=For Three Harps
TTITLE4=Hollow Log Blues
TTITLE5=Spanish Wine
TTITLE6=Eckardt Schulz Boogie
TTITLE7=She's My Queen
TTITLE8=Open Your Door
TTITLE9=Lord Have Mercy
TTITLE10=So veel Arger
TTITLE11=Kosmetisches Chaos
TTITLE12=Blues-Pan Boogie
TTITLE13=Der Traum
TTITLE14=Good Bye
TTITLE15=She's My Queen (Blues-Duo)
TTITLE16=Hollow Log Blues (Blues-Duo)
TTITLE17=Blues In Germany
EXTD=YEAR: 1996
EXTT0=
EXTT1=
EXTT2=
EXTT3=
EXTT4=
EXTT5=
EXTT6=
EXTT7=
EXTT8=
EXTT9=
EXTT10=
EXTT11=
EXTT12=
EXTT13=
EXTT14=
EXTT15=
EXTT16=
EXTT17=
PLAYORDER=
